<svg xmlns="http://www.w3.org/2000/svg" xmlns:xlink="http://www.w3.org/1999/xlink" width="24" height="24" viewBox="0 0 24 24"><defs><symbol id="icon_apple" viewBox="0 0 24 24"><path id="icon_apple-a" d="M15.612 7.344l.293.015c.296 0 .823.101 1.58.304.755.203 1.413.696 1.972 1.477-.033.03-.394.328-1.085.89-.69.563-1.036 1.406-1.036 2.531.033 1.375.477 2.328 1.332 2.859.855.531 1.3.797 1.332.797-.033.031-.148.304-.345.82-.198.515-.543 1.086-1.036 1.71-.395.563-.822 1.07-1.283 1.524-.46.453-1.036.68-1.727.68-.657.03-1.167-.079-1.529-.329-.362-.25-.92-.375-1.677-.375s-1.324.118-1.702.352c-.378.234-.88.367-1.505.398-.657.031-1.233-.203-1.726-.703-.494-.5-.954-1.03-1.382-1.593-.822-1.094-1.447-2.531-1.874-4.312-.428-1.781-.214-3.359.641-4.734a4.713 4.713 0 011.727-1.64 4.662 4.662 0 012.318-.61 3.786 3.786 0 011.8.352c.576.266 1.062.398 1.456.398.362 0 .88-.148 1.554-.445a4.485 4.485 0 012.195-.351zM15.905 3c.066.531 0 1.047-.197 1.547s-.477.937-.839 1.312c-.328.375-.756.695-1.282.96a2.844 2.844 0 01-1.628.305c-.066-.5.016-1 .247-1.5.23-.5.51-.921.838-1.265.33-.375.765-.687 1.307-.937.543-.25 1.061-.39 1.554-.422z"/></symbol></defs><use fill="#FFF" fill-rule="evenodd" xlink:href="#icon_apple-a"/></svg>